<svg id="レイヤー_1" data-name="レイヤー 1" xmlns="http://www.w3.org/2000/svg" viewBox="0 0 16 16"><defs><style>.cls-1{fill:#0a99df;}</style></defs><path class="cls-1" d="M3,1.54H7.31c2.76,0,4,1.53,4,3.61s-1.24,3.61-4,3.61H5.05v4.73H3Zm4.38,5.3c1.38,0,1.86-.71,1.86-1.69S8.72,3.47,7.34,3.47H5.05V6.84Z"/><path class="cls-1" d="M10.6,1.33a8,8,0,0,1,1.54,2,7.2,7.2,0,0,1,.5,1.18l0,.15,0,.08a.19.19,0,0,0,0,.07l.08.32c0,.21.1.42.13.63l0,.16C13,6,13,6,13,6.09v1a9.52,9.52,0,0,1-.12,1.3A8.44,8.44,0,0,1,12,10.81l0,.07-.05.07-.08.14,0,.07-.05.07-.09.14-.09.13-.1.14-.09.13-.05.07,0,.06-.21.26-.22.25-.12.12-.11.11-.06.06-.06.06-.12.11a6.93,6.93,0,0,1-1.07.8,6.6,6.6,0,0,1-1.2.57L8,14.3H7.9l-.08,0-.16,0-.16,0-.33.08-.32.06H6.69l-.17,0-.16,0H6.19c-.21,0-.43,0-.65,0l-.33,0-.32,0c-.22,0-.43-.06-.64-.11s-.42-.1-.63-.17A6.07,6.07,0,0,1,3,14.1l0-.09.63.06c.2,0,.41,0,.61,0s.41,0,.61,0l.31,0,.3,0h.15l.15,0,.29-.05.15,0,.14,0,.15,0h.07l.07,0L7,13.71l.28-.09.14,0,.14-.05.07,0h0l0,0,.14-.06.13-.06.14-.06.13-.06.07,0,.06,0L8.59,13l.26-.15a8.83,8.83,0,0,0,1-.67,7,7,0,0,0,1.59-1.75A8.88,8.88,0,0,0,12,9.38a7.7,7.7,0,0,0,.37-1.15A8,8,0,0,0,12.51,7l0-.3V6.13s0-.1,0-.15V5.82a7.83,7.83,0,0,0-.61-2.36l-.13-.28-.15-.27c0-.05,0-.09-.07-.13l-.08-.14c-.05-.09-.11-.17-.17-.26a7.14,7.14,0,0,0-.76-1Z"/></svg>